<?xml version="1.0" encoding="utf-8"?>
<!-- Generator: Adobe Illustrator 15.1.0, SVG Export Plug-In . SVG Version: 6.00 Build 0)  -->
<!DOCTYPE svg PUBLIC "-//W3C//DTD SVG 1.1//EN" "http://www.w3.org/Graphics/SVG/1.1/DTD/svg11.dtd">
<svg version="1.1" id="Layer_1" xmlns="http://www.w3.org/2000/svg" xmlns:xlink="http://www.w3.org/1999/xlink" x="0px" y="0px"
	 width="137.808px" height="34.971px" viewBox="0 0 137.808 34.971" enable-background="new 0 0 137.808 34.971"
	 xml:space="preserve">
<g>
	<path fill="#FFFFFF" d="M4.955,30.518v-5.473H5.23c0.062,0,0.107,0.013,0.135,0.039c0.027,0.026,0.043,0.07,0.047,0.132
		l0.044,1.155c0.176-0.444,0.41-0.791,0.704-1.042c0.293-0.251,0.654-0.376,1.083-0.376c0.165,0,0.317,0.018,0.457,0.052
		c0.139,0.035,0.271,0.085,0.396,0.151l-0.071,0.363c-0.011,0.059-0.048,0.088-0.11,0.088c-0.021,0-0.053-0.007-0.093-0.022
		C7.78,25.57,7.73,25.553,7.669,25.535c-0.061-0.019-0.135-0.035-0.223-0.05c-0.088-0.014-0.189-0.022-0.303-0.022
		c-0.414,0-0.755,0.128-1.021,0.385s-0.481,0.627-0.646,1.111v3.559H4.955z"/>
	<path fill="#FFFFFF" d="M11.384,24.958c0.309,0,0.594,0.053,0.855,0.16c0.263,0.106,0.489,0.261,0.683,0.465
		c0.192,0.203,0.343,0.454,0.45,0.75c0.108,0.297,0.162,0.638,0.162,1.023c0,0.081-0.012,0.136-0.035,0.165
		s-0.062,0.044-0.112,0.044H9.438v0.104c0,0.411,0.047,0.772,0.143,1.083c0.096,0.312,0.231,0.573,0.407,0.784
		c0.176,0.211,0.389,0.37,0.638,0.476s0.528,0.159,0.836,0.159c0.275,0,0.514-0.03,0.715-0.09c0.202-0.061,0.372-0.128,0.509-0.204
		c0.138-0.075,0.247-0.143,0.327-0.204c0.081-0.061,0.14-0.091,0.177-0.091c0.047,0,0.084,0.019,0.109,0.055l0.144,0.176
		c-0.088,0.11-0.205,0.213-0.35,0.308s-0.306,0.177-0.483,0.245c-0.179,0.068-0.369,0.122-0.572,0.163
		c-0.204,0.04-0.408,0.06-0.613,0.06c-0.374,0-0.715-0.065-1.023-0.195c-0.308-0.13-0.572-0.32-0.793-0.569
		c-0.221-0.25-0.391-0.555-0.511-0.916c-0.121-0.361-0.181-0.774-0.181-1.24c0-0.392,0.056-0.754,0.167-1.086
		c0.112-0.332,0.273-0.618,0.484-0.858c0.211-0.24,0.47-0.428,0.775-0.563C10.649,25.025,10.996,24.958,11.384,24.958z
		 M11.393,25.348c-0.282,0-0.535,0.044-0.758,0.132c-0.224,0.088-0.417,0.214-0.58,0.379s-0.294,0.363-0.396,0.594
		c-0.101,0.231-0.167,0.489-0.2,0.775h3.603c0-0.293-0.04-0.556-0.121-0.789c-0.08-0.233-0.193-0.43-0.34-0.591
		s-0.322-0.285-0.527-0.371C11.869,25.391,11.642,25.348,11.393,25.348z"/>
	<path fill="#FFFFFF" d="M18.435,30.518c-0.11,0-0.178-0.051-0.204-0.154l-0.077-0.699c-0.15,0.147-0.299,0.279-0.448,0.396
		c-0.148,0.118-0.303,0.216-0.464,0.297c-0.162,0.081-0.336,0.142-0.522,0.185c-0.188,0.042-0.393,0.063-0.616,0.063
		c-0.188,0-0.369-0.027-0.545-0.083c-0.176-0.055-0.332-0.139-0.468-0.253s-0.244-0.259-0.327-0.437
		c-0.082-0.178-0.123-0.392-0.123-0.641c0-0.231,0.065-0.445,0.197-0.644c0.133-0.198,0.339-0.37,0.619-0.517
		c0.28-0.147,0.642-0.264,1.083-0.352c0.442-0.088,0.973-0.14,1.593-0.154v-0.572c0-0.506-0.109-0.896-0.327-1.169
		c-0.219-0.273-0.542-0.41-0.971-0.41c-0.265,0-0.489,0.037-0.674,0.11c-0.186,0.074-0.342,0.154-0.471,0.242
		c-0.128,0.088-0.232,0.169-0.313,0.242c-0.08,0.073-0.148,0.11-0.203,0.11c-0.073,0-0.129-0.033-0.165-0.099l-0.094-0.159
		c0.286-0.286,0.587-0.502,0.902-0.649c0.315-0.146,0.673-0.22,1.072-0.22c0.293,0,0.55,0.047,0.771,0.14
		c0.22,0.094,0.402,0.228,0.547,0.401c0.145,0.174,0.254,0.385,0.327,0.633s0.11,0.523,0.11,0.828v3.564H18.435z M16.235,30.227
		c0.213,0,0.408-0.023,0.586-0.069s0.343-0.11,0.495-0.192c0.151-0.083,0.294-0.181,0.426-0.294
		c0.132-0.113,0.262-0.236,0.391-0.368v-1.425c-0.521,0.015-0.969,0.054-1.345,0.118c-0.376,0.064-0.686,0.151-0.93,0.261
		c-0.244,0.11-0.424,0.241-0.539,0.394s-0.173,0.325-0.173,0.52c0,0.184,0.03,0.342,0.091,0.476s0.14,0.244,0.239,0.33
		c0.099,0.086,0.214,0.15,0.347,0.19C15.955,30.207,16.091,30.227,16.235,30.227z"/>
	<path fill="#FFFFFF" d="M20.97,22.516v8.002h-0.522v-8.002H20.97z"/>
	<path fill="#FFFFFF" d="M24.397,30.606c-0.371,0-0.658-0.103-0.864-0.308c-0.205-0.205-0.308-0.522-0.308-0.951v-3.74h-0.786
		c-0.041,0-0.073-0.011-0.1-0.033c-0.025-0.022-0.038-0.053-0.038-0.094v-0.204l0.935-0.066l0.131-1.958
		c0.004-0.033,0.018-0.062,0.041-0.088c0.023-0.025,0.055-0.039,0.095-0.039h0.245v2.09h1.722v0.39h-1.722v3.712
		c0,0.15,0.02,0.28,0.058,0.388c0.039,0.108,0.092,0.197,0.16,0.267c0.067,0.07,0.147,0.121,0.239,0.154
		c0.091,0.033,0.19,0.05,0.297,0.05c0.132,0,0.245-0.02,0.341-0.058c0.095-0.038,0.178-0.081,0.247-0.126
		c0.07-0.046,0.127-0.088,0.171-0.126s0.079-0.058,0.104-0.058c0.029,0,0.059,0.019,0.088,0.055l0.143,0.231
		c-0.139,0.154-0.315,0.278-0.53,0.371S24.627,30.606,24.397,30.606z"/>
	<path fill="#FFFFFF" d="M27.736,23.159c0,0.066-0.014,0.127-0.042,0.184c-0.027,0.057-0.062,0.107-0.106,0.151
		s-0.096,0.079-0.154,0.104s-0.121,0.039-0.188,0.039c-0.065,0-0.128-0.013-0.187-0.039s-0.11-0.061-0.154-0.104
		S26.826,23.4,26.8,23.343c-0.025-0.057-0.038-0.118-0.038-0.184s0.013-0.129,0.038-0.19s0.061-0.113,0.104-0.157
		s0.096-0.079,0.154-0.104c0.059-0.025,0.121-0.039,0.187-0.039c0.066,0,0.129,0.013,0.188,0.039
		c0.059,0.026,0.11,0.061,0.154,0.104s0.079,0.096,0.106,0.157C27.722,23.03,27.736,23.093,27.736,23.159z M27.504,25.045v5.473
		h-0.522v-5.473H27.504z"/>
	<path fill="#FFFFFF" d="M29.44,30.518v-5.473h0.286c0.096,0,0.15,0.046,0.165,0.138l0.05,0.792c0.106-0.15,0.22-0.288,0.341-0.413
		c0.121-0.125,0.25-0.232,0.388-0.322s0.284-0.159,0.44-0.209c0.155-0.049,0.319-0.074,0.492-0.074c0.399,0,0.719,0.117,0.957,0.349
		c0.238,0.233,0.399,0.557,0.483,0.971c0.066-0.227,0.158-0.423,0.277-0.588s0.256-0.301,0.409-0.41
		c0.154-0.108,0.321-0.189,0.503-0.242c0.181-0.053,0.366-0.08,0.558-0.08c0.271,0,0.514,0.045,0.729,0.135
		c0.217,0.09,0.4,0.223,0.552,0.399c0.152,0.176,0.269,0.392,0.35,0.649c0.08,0.257,0.12,0.55,0.12,0.88v3.498h-0.522V27.02
		c0-0.535-0.115-0.943-0.347-1.224c-0.23-0.281-0.561-0.421-0.989-0.421c-0.191,0-0.373,0.035-0.548,0.104
		c-0.174,0.07-0.328,0.173-0.462,0.311c-0.134,0.137-0.24,0.309-0.318,0.514c-0.079,0.205-0.119,0.443-0.119,0.715v3.498h-0.522
		V27.02c0-0.532-0.106-0.938-0.318-1.221c-0.213-0.282-0.522-0.423-0.93-0.423c-0.297,0-0.572,0.089-0.825,0.267
		c-0.253,0.178-0.479,0.425-0.677,0.74v4.136H29.44z"/>
	<path fill="#FFFFFF" d="M40.252,24.958c0.309,0,0.594,0.053,0.855,0.16c0.263,0.106,0.489,0.261,0.683,0.465
		c0.192,0.203,0.343,0.454,0.45,0.75c0.108,0.297,0.162,0.638,0.162,1.023c0,0.081-0.012,0.136-0.035,0.165
		s-0.062,0.044-0.112,0.044h-3.949v0.104c0,0.411,0.047,0.772,0.143,1.083c0.096,0.312,0.231,0.573,0.407,0.784
		c0.176,0.211,0.389,0.37,0.638,0.476s0.528,0.159,0.836,0.159c0.275,0,0.514-0.03,0.715-0.09c0.202-0.061,0.372-0.128,0.509-0.204
		c0.138-0.075,0.247-0.143,0.327-0.204c0.081-0.061,0.14-0.091,0.177-0.091c0.047,0,0.084,0.019,0.109,0.055l0.144,0.176
		c-0.088,0.11-0.205,0.213-0.35,0.308s-0.306,0.177-0.483,0.245c-0.179,0.068-0.369,0.122-0.572,0.163
		c-0.204,0.04-0.408,0.06-0.613,0.06c-0.374,0-0.715-0.065-1.023-0.195c-0.308-0.13-0.572-0.32-0.793-0.569
		c-0.221-0.25-0.391-0.555-0.511-0.916c-0.121-0.361-0.181-0.774-0.181-1.24c0-0.392,0.056-0.754,0.167-1.086
		c0.112-0.332,0.273-0.618,0.484-0.858c0.211-0.24,0.47-0.428,0.775-0.563C39.517,25.025,39.864,24.958,40.252,24.958z
		 M40.261,25.348c-0.282,0-0.535,0.044-0.758,0.132c-0.224,0.088-0.417,0.214-0.58,0.379s-0.294,0.363-0.396,0.594
		c-0.101,0.231-0.167,0.489-0.2,0.775h3.603c0-0.293-0.04-0.556-0.121-0.789c-0.08-0.233-0.193-0.43-0.34-0.591
		s-0.322-0.285-0.527-0.371C40.737,25.391,40.51,25.348,40.261,25.348z"/>
	<path fill="#FFFFFF" d="M48.949,25.728c-0.026,0.051-0.066,0.077-0.121,0.077c-0.041,0-0.093-0.023-0.157-0.069
		c-0.063-0.046-0.148-0.097-0.253-0.154c-0.104-0.057-0.232-0.108-0.385-0.154s-0.338-0.069-0.559-0.069
		c-0.197,0-0.378,0.028-0.541,0.085c-0.164,0.057-0.303,0.132-0.418,0.228c-0.116,0.095-0.206,0.206-0.27,0.332
		c-0.064,0.126-0.097,0.259-0.097,0.398c0,0.172,0.044,0.314,0.132,0.428s0.204,0.21,0.347,0.291
		c0.143,0.081,0.306,0.15,0.486,0.208c0.182,0.059,0.368,0.117,0.559,0.176c0.19,0.059,0.377,0.124,0.559,0.195
		c0.182,0.072,0.344,0.161,0.486,0.267c0.144,0.106,0.259,0.236,0.347,0.39c0.088,0.154,0.132,0.341,0.132,0.561
		c0,0.238-0.043,0.46-0.129,0.666c-0.086,0.206-0.211,0.383-0.374,0.534s-0.364,0.27-0.603,0.357s-0.51,0.132-0.813,0.132
		c-0.386,0-0.718-0.062-0.996-0.184c-0.278-0.123-0.527-0.283-0.748-0.481l0.127-0.187c0.019-0.029,0.038-0.051,0.061-0.066
		c0.021-0.015,0.053-0.022,0.093-0.022c0.048,0,0.106,0.029,0.177,0.088c0.069,0.059,0.16,0.122,0.271,0.19
		c0.112,0.068,0.252,0.131,0.419,0.19c0.166,0.059,0.373,0.088,0.618,0.088c0.231,0,0.435-0.032,0.61-0.096
		c0.176-0.064,0.323-0.151,0.44-0.261c0.117-0.11,0.206-0.239,0.267-0.388c0.061-0.148,0.091-0.305,0.091-0.47
		c0-0.183-0.044-0.335-0.132-0.457c-0.088-0.121-0.204-0.223-0.347-0.308c-0.144-0.084-0.306-0.156-0.487-0.215
		c-0.181-0.059-0.368-0.117-0.561-0.176s-0.38-0.123-0.561-0.192c-0.182-0.07-0.344-0.158-0.487-0.264
		c-0.143-0.106-0.259-0.235-0.347-0.388s-0.132-0.342-0.132-0.569c0-0.194,0.042-0.381,0.127-0.561
		c0.084-0.18,0.204-0.337,0.36-0.473c0.155-0.135,0.345-0.244,0.568-0.324s0.476-0.121,0.754-0.121c0.334,0,0.63,0.048,0.889,0.145
		c0.258,0.097,0.495,0.245,0.712,0.443L48.949,25.728z"/>
	<path fill="#FFFFFF" d="M52.155,30.606c-0.371,0-0.658-0.103-0.864-0.308c-0.205-0.205-0.308-0.522-0.308-0.951v-3.74h-0.786
		c-0.041,0-0.073-0.011-0.1-0.033c-0.025-0.022-0.038-0.053-0.038-0.094v-0.204l0.935-0.066l0.131-1.958
		c0.004-0.033,0.018-0.062,0.041-0.088c0.023-0.025,0.055-0.039,0.095-0.039h0.245v2.09h1.722v0.39h-1.722v3.712
		c0,0.15,0.02,0.28,0.058,0.388c0.039,0.108,0.092,0.197,0.16,0.267c0.067,0.07,0.147,0.121,0.239,0.154
		c0.091,0.033,0.19,0.05,0.297,0.05c0.132,0,0.245-0.02,0.341-0.058c0.095-0.038,0.178-0.081,0.247-0.126
		c0.07-0.046,0.127-0.088,0.171-0.126s0.079-0.058,0.104-0.058c0.029,0,0.059,0.019,0.088,0.055l0.143,0.231
		c-0.139,0.154-0.315,0.278-0.53,0.371S52.385,30.606,52.155,30.606z"/>
	<path fill="#FFFFFF" d="M54.585,30.518v-5.473h0.275c0.062,0,0.107,0.013,0.135,0.039c0.027,0.026,0.043,0.07,0.047,0.132
		l0.044,1.155c0.176-0.444,0.41-0.791,0.704-1.042c0.293-0.251,0.654-0.376,1.083-0.376c0.165,0,0.317,0.018,0.457,0.052
		c0.139,0.035,0.271,0.085,0.396,0.151l-0.071,0.363c-0.011,0.059-0.048,0.088-0.11,0.088c-0.021,0-0.053-0.007-0.093-0.022
		c-0.041-0.015-0.091-0.031-0.151-0.049c-0.061-0.019-0.135-0.035-0.223-0.05c-0.088-0.014-0.189-0.022-0.303-0.022
		c-0.414,0-0.755,0.128-1.021,0.385s-0.481,0.627-0.646,1.111v3.559H54.585z"/>
	<path fill="#FFFFFF" d="M61.015,24.958c0.309,0,0.594,0.053,0.855,0.16c0.263,0.106,0.489,0.261,0.683,0.465
		c0.192,0.203,0.343,0.454,0.45,0.75c0.108,0.297,0.162,0.638,0.162,1.023c0,0.081-0.012,0.136-0.035,0.165
		s-0.062,0.044-0.112,0.044h-3.949v0.104c0,0.411,0.047,0.772,0.143,1.083c0.096,0.312,0.231,0.573,0.407,0.784
		c0.176,0.211,0.389,0.37,0.638,0.476s0.528,0.159,0.836,0.159c0.275,0,0.514-0.03,0.715-0.09c0.202-0.061,0.372-0.128,0.509-0.204
		c0.138-0.075,0.247-0.143,0.327-0.204c0.081-0.061,0.14-0.091,0.177-0.091c0.047,0,0.084,0.019,0.109,0.055l0.144,0.176
		c-0.088,0.11-0.205,0.213-0.35,0.308s-0.306,0.177-0.483,0.245c-0.179,0.068-0.369,0.122-0.572,0.163
		c-0.204,0.04-0.408,0.06-0.613,0.06c-0.374,0-0.715-0.065-1.023-0.195c-0.308-0.13-0.572-0.32-0.793-0.569
		c-0.221-0.25-0.391-0.555-0.511-0.916c-0.121-0.361-0.181-0.774-0.181-1.24c0-0.392,0.056-0.754,0.167-1.086
		c0.112-0.332,0.273-0.618,0.484-0.858c0.211-0.24,0.47-0.428,0.775-0.563C60.28,25.025,60.626,24.958,61.015,24.958z
		 M61.024,25.348c-0.282,0-0.535,0.044-0.758,0.132c-0.224,0.088-0.417,0.214-0.58,0.379s-0.294,0.363-0.396,0.594
		c-0.101,0.231-0.167,0.489-0.2,0.775h3.603c0-0.293-0.04-0.556-0.121-0.789c-0.08-0.233-0.193-0.43-0.34-0.591
		s-0.322-0.285-0.527-0.371C61.5,25.391,61.273,25.348,61.024,25.348z"/>
	<path fill="#FFFFFF" d="M68.066,30.518c-0.11,0-0.178-0.051-0.204-0.154l-0.077-0.699c-0.15,0.147-0.299,0.279-0.448,0.396
		c-0.148,0.118-0.303,0.216-0.464,0.297c-0.162,0.081-0.336,0.142-0.522,0.185c-0.188,0.042-0.393,0.063-0.616,0.063
		c-0.188,0-0.369-0.027-0.545-0.083c-0.176-0.055-0.332-0.139-0.468-0.253s-0.244-0.259-0.327-0.437
		c-0.082-0.178-0.123-0.392-0.123-0.641c0-0.231,0.065-0.445,0.197-0.644c0.133-0.198,0.339-0.37,0.619-0.517
		c0.28-0.147,0.642-0.264,1.083-0.352c0.442-0.088,0.973-0.14,1.593-0.154v-0.572c0-0.506-0.109-0.896-0.327-1.169
		c-0.219-0.273-0.542-0.41-0.971-0.41c-0.265,0-0.489,0.037-0.674,0.11c-0.186,0.074-0.342,0.154-0.471,0.242
		c-0.128,0.088-0.232,0.169-0.313,0.242c-0.08,0.073-0.148,0.11-0.203,0.11c-0.073,0-0.129-0.033-0.165-0.099l-0.094-0.159
		c0.286-0.286,0.587-0.502,0.902-0.649c0.315-0.146,0.673-0.22,1.072-0.22c0.293,0,0.55,0.047,0.771,0.14
		c0.22,0.094,0.402,0.228,0.547,0.401c0.145,0.174,0.254,0.385,0.327,0.633s0.11,0.523,0.11,0.828v3.564H68.066z M65.866,30.227
		c0.213,0,0.408-0.023,0.586-0.069s0.343-0.11,0.495-0.192c0.151-0.083,0.294-0.181,0.426-0.294
		c0.132-0.113,0.262-0.236,0.391-0.368v-1.425c-0.521,0.015-0.969,0.054-1.345,0.118c-0.376,0.064-0.686,0.151-0.93,0.261
		c-0.244,0.11-0.424,0.241-0.539,0.394s-0.173,0.325-0.173,0.52c0,0.184,0.03,0.342,0.091,0.476s0.14,0.244,0.239,0.33
		c0.099,0.086,0.214,0.15,0.347,0.19C65.585,30.207,65.722,30.227,65.866,30.227z"/>
	<path fill="#FFFFFF" d="M69.924,30.518v-5.473h0.286c0.096,0,0.15,0.046,0.165,0.138l0.05,0.792c0.106-0.15,0.22-0.288,0.341-0.413
		c0.121-0.125,0.25-0.232,0.388-0.322s0.284-0.159,0.44-0.209c0.155-0.049,0.319-0.074,0.492-0.074c0.399,0,0.719,0.117,0.957,0.349
		c0.238,0.233,0.399,0.557,0.483,0.971c0.066-0.227,0.158-0.423,0.277-0.588s0.256-0.301,0.409-0.41
		c0.154-0.108,0.321-0.189,0.503-0.242c0.181-0.053,0.366-0.08,0.558-0.08c0.271,0,0.514,0.045,0.729,0.135
		c0.217,0.09,0.4,0.223,0.552,0.399c0.152,0.176,0.269,0.392,0.35,0.649c0.08,0.257,0.12,0.55,0.12,0.88v3.498h-0.522V27.02
		c0-0.535-0.115-0.943-0.347-1.224c-0.23-0.281-0.561-0.421-0.989-0.421c-0.191,0-0.373,0.035-0.548,0.104
		c-0.174,0.07-0.328,0.173-0.462,0.311c-0.134,0.137-0.24,0.309-0.318,0.514c-0.079,0.205-0.119,0.443-0.119,0.715v3.498h-0.522
		V27.02c0-0.532-0.106-0.938-0.318-1.221c-0.213-0.282-0.522-0.423-0.93-0.423c-0.297,0-0.572,0.089-0.825,0.267
		c-0.253,0.178-0.479,0.425-0.677,0.74v4.136H69.924z"/>
	<path fill="#FFFFFF" d="M79.583,23.159c0,0.066-0.014,0.127-0.042,0.184c-0.027,0.057-0.062,0.107-0.106,0.151
		s-0.096,0.079-0.154,0.104s-0.121,0.039-0.188,0.039c-0.065,0-0.128-0.013-0.187-0.039s-0.11-0.061-0.154-0.104
		s-0.079-0.094-0.104-0.151c-0.025-0.057-0.038-0.118-0.038-0.184s0.013-0.129,0.038-0.19s0.061-0.113,0.104-0.157
		s0.096-0.079,0.154-0.104c0.059-0.025,0.121-0.039,0.187-0.039c0.066,0,0.129,0.013,0.188,0.039
		c0.059,0.026,0.11,0.061,0.154,0.104s0.079,0.096,0.106,0.157C79.57,23.03,79.583,23.093,79.583,23.159z M79.352,25.045v5.473
		H78.83v-5.473H79.352z"/>
	<path fill="#FFFFFF" d="M81.288,30.518v-5.473h0.285c0.096,0,0.15,0.046,0.166,0.138l0.049,0.825
		c0.25-0.315,0.541-0.569,0.873-0.762c0.33-0.192,0.701-0.289,1.107-0.289c0.301,0,0.566,0.048,0.795,0.143s0.418,0.233,0.568,0.413
		s0.264,0.396,0.342,0.649c0.076,0.253,0.115,0.539,0.115,0.858v3.498h-0.521V27.02c0-0.513-0.119-0.916-0.354-1.207
		s-0.594-0.438-1.078-0.438c-0.359,0-0.691,0.093-1,0.278s-0.584,0.439-0.826,0.762v4.103H81.288z"/>
	<path fill="#FFFFFF" d="M89.042,24.952c0.238,0,0.459,0.029,0.662,0.088c0.205,0.059,0.387,0.141,0.549,0.248h1.402v0.182
		c0,0.091-0.053,0.141-0.154,0.148l-0.83,0.061c0.102,0.139,0.182,0.296,0.236,0.47s0.082,0.36,0.082,0.558
		c0,0.264-0.047,0.503-0.143,0.718s-0.229,0.398-0.398,0.55c-0.172,0.152-0.375,0.271-0.613,0.355s-0.504,0.126-0.793,0.126
		c-0.314,0-0.602-0.048-0.857-0.143c-0.154,0.088-0.275,0.192-0.363,0.313s-0.133,0.238-0.133,0.352
		c0,0.158,0.057,0.279,0.166,0.363c0.109,0.084,0.256,0.146,0.438,0.184s0.389,0.063,0.621,0.074
		c0.232,0.011,0.469,0.023,0.709,0.036c0.24,0.013,0.477,0.036,0.709,0.069c0.234,0.033,0.441,0.091,0.623,0.173
		s0.326,0.198,0.438,0.346c0.109,0.149,0.164,0.346,0.164,0.591c0,0.228-0.057,0.446-0.17,0.655
		c-0.115,0.209-0.279,0.394-0.492,0.555c-0.215,0.162-0.475,0.291-0.779,0.388s-0.645,0.146-1.023,0.146
		c-0.385,0-0.721-0.04-1.012-0.118c-0.289-0.079-0.531-0.186-0.729-0.319c-0.195-0.134-0.344-0.289-0.443-0.464
		c-0.098-0.176-0.148-0.363-0.148-0.561c0-0.29,0.096-0.539,0.287-0.748c0.189-0.209,0.453-0.371,0.787-0.484
		c-0.184-0.062-0.33-0.152-0.438-0.27c-0.109-0.118-0.162-0.281-0.162-0.49c0-0.077,0.014-0.158,0.043-0.242
		c0.029-0.084,0.074-0.168,0.133-0.25s0.129-0.16,0.211-0.234c0.082-0.073,0.18-0.139,0.289-0.198c-0.26-0.15-0.463-0.35-0.607-0.6
		s-0.217-0.541-0.217-0.875c0-0.264,0.047-0.503,0.139-0.718c0.094-0.214,0.227-0.399,0.396-0.553s0.377-0.273,0.619-0.357
		S88.749,24.952,89.042,24.952z M91.071,30.887c0-0.172-0.045-0.311-0.135-0.416s-0.209-0.186-0.359-0.245s-0.324-0.1-0.52-0.124
		c-0.197-0.024-0.402-0.042-0.617-0.052c-0.215-0.011-0.43-0.022-0.646-0.033c-0.215-0.011-0.418-0.033-0.604-0.066
		c-0.141,0.055-0.27,0.118-0.389,0.189c-0.119,0.072-0.221,0.152-0.305,0.242s-0.15,0.189-0.199,0.297
		c-0.047,0.108-0.07,0.227-0.07,0.355c0,0.161,0.041,0.311,0.123,0.448c0.082,0.137,0.203,0.256,0.363,0.357
		c0.16,0.101,0.355,0.181,0.586,0.239s0.496,0.088,0.797,0.088c0.279,0,0.539-0.031,0.779-0.093c0.24-0.062,0.449-0.15,0.627-0.264
		s0.316-0.25,0.418-0.407C91.021,31.246,91.071,31.074,91.071,30.887z M89.042,28.098c0.234,0,0.443-0.034,0.627-0.102
		c0.184-0.067,0.338-0.162,0.463-0.283c0.123-0.121,0.219-0.266,0.283-0.434c0.064-0.169,0.096-0.356,0.096-0.561
		c0-0.206-0.033-0.394-0.1-0.564s-0.162-0.316-0.289-0.437c-0.125-0.121-0.279-0.215-0.461-0.281s-0.389-0.099-0.619-0.099
		s-0.438,0.033-0.621,0.099s-0.338,0.16-0.465,0.281c-0.127,0.121-0.223,0.267-0.289,0.437s-0.1,0.358-0.1,0.564
		c0,0.205,0.033,0.392,0.1,0.561c0.066,0.168,0.162,0.313,0.289,0.434c0.127,0.121,0.281,0.216,0.465,0.283
		C88.604,28.064,88.812,28.098,89.042,28.098z"/>
	<path fill="#FFFFFF" d="M98.403,30.518c-0.109,0-0.178-0.051-0.203-0.154l-0.078-0.699c-0.15,0.147-0.299,0.279-0.447,0.396
		c-0.148,0.118-0.303,0.216-0.465,0.297c-0.162,0.081-0.336,0.142-0.521,0.185c-0.188,0.042-0.393,0.063-0.617,0.063
		c-0.188,0-0.369-0.027-0.545-0.083c-0.176-0.055-0.332-0.139-0.467-0.253c-0.137-0.114-0.244-0.259-0.328-0.437
		c-0.082-0.178-0.123-0.392-0.123-0.641c0-0.231,0.066-0.445,0.197-0.644c0.133-0.198,0.34-0.37,0.619-0.517
		c0.281-0.147,0.643-0.264,1.084-0.352s0.973-0.14,1.592-0.154v-0.572c0-0.506-0.109-0.896-0.326-1.169
		c-0.219-0.273-0.543-0.41-0.971-0.41c-0.266,0-0.49,0.037-0.674,0.11c-0.186,0.074-0.342,0.154-0.471,0.242
		s-0.232,0.169-0.314,0.242c-0.08,0.073-0.148,0.11-0.203,0.11c-0.072,0-0.129-0.033-0.164-0.099l-0.094-0.159
		c0.285-0.286,0.586-0.502,0.902-0.649c0.314-0.146,0.672-0.22,1.072-0.22c0.293,0,0.549,0.047,0.77,0.14
		c0.221,0.094,0.402,0.228,0.547,0.401c0.145,0.174,0.254,0.385,0.328,0.633c0.072,0.248,0.109,0.523,0.109,0.828v3.564H98.403z
		 M96.204,30.227c0.213,0,0.408-0.023,0.586-0.069s0.342-0.11,0.494-0.192s0.295-0.181,0.426-0.294
		c0.133-0.113,0.262-0.236,0.391-0.368v-1.425c-0.52,0.015-0.969,0.054-1.344,0.118c-0.377,0.064-0.686,0.151-0.93,0.261
		c-0.244,0.11-0.424,0.241-0.539,0.394s-0.174,0.325-0.174,0.52c0,0.184,0.031,0.342,0.092,0.476s0.139,0.244,0.238,0.33
		c0.1,0.086,0.215,0.15,0.348,0.19C95.923,30.207,96.06,30.227,96.204,30.227z"/>
	<path fill="#FFFFFF" d="M101.753,30.606c-0.371,0-0.658-0.103-0.863-0.308c-0.205-0.205-0.309-0.522-0.309-0.951v-3.74h-0.785
		c-0.041,0-0.074-0.011-0.1-0.033s-0.039-0.053-0.039-0.094v-0.204l0.936-0.066l0.131-1.958c0.004-0.033,0.018-0.062,0.041-0.088
		c0.023-0.025,0.055-0.039,0.094-0.039h0.246v2.09h1.721v0.39h-1.721v3.712c0,0.15,0.02,0.28,0.057,0.388
		c0.039,0.108,0.092,0.197,0.16,0.267s0.148,0.121,0.24,0.154c0.09,0.033,0.189,0.05,0.297,0.05c0.131,0,0.244-0.02,0.34-0.058
		c0.096-0.038,0.178-0.081,0.248-0.126s0.127-0.088,0.17-0.126c0.045-0.039,0.08-0.058,0.105-0.058c0.029,0,0.059,0.019,0.088,0.055
		l0.143,0.231c-0.139,0.154-0.316,0.278-0.531,0.371S101.983,30.606,101.753,30.606z"/>
	<path fill="#FFFFFF" d="M109.321,25.728c-0.027,0.051-0.066,0.077-0.121,0.077c-0.041,0-0.094-0.023-0.158-0.069
		c-0.062-0.046-0.148-0.097-0.252-0.154c-0.105-0.057-0.232-0.108-0.385-0.154s-0.338-0.069-0.559-0.069
		c-0.197,0-0.379,0.028-0.541,0.085c-0.164,0.057-0.303,0.132-0.418,0.228c-0.117,0.095-0.207,0.206-0.27,0.332
		c-0.064,0.126-0.098,0.259-0.098,0.398c0,0.172,0.045,0.314,0.133,0.428s0.203,0.21,0.346,0.291
		c0.143,0.081,0.307,0.15,0.486,0.208c0.182,0.059,0.369,0.117,0.559,0.176c0.191,0.059,0.377,0.124,0.559,0.195
		c0.182,0.072,0.344,0.161,0.486,0.267c0.145,0.106,0.26,0.236,0.348,0.39c0.088,0.154,0.131,0.341,0.131,0.561
		c0,0.238-0.043,0.46-0.129,0.666c-0.086,0.206-0.211,0.383-0.373,0.534c-0.164,0.15-0.365,0.27-0.604,0.357
		s-0.51,0.132-0.812,0.132c-0.387,0-0.719-0.062-0.996-0.184c-0.279-0.123-0.527-0.283-0.748-0.481l0.127-0.187
		c0.018-0.029,0.037-0.051,0.061-0.066c0.021-0.015,0.053-0.022,0.092-0.022c0.049,0,0.107,0.029,0.178,0.088
		c0.068,0.059,0.16,0.122,0.271,0.19s0.252,0.131,0.418,0.19c0.166,0.059,0.373,0.088,0.619,0.088c0.23,0,0.434-0.032,0.609-0.096
		c0.176-0.064,0.324-0.151,0.441-0.261c0.117-0.11,0.205-0.239,0.266-0.388c0.061-0.148,0.092-0.305,0.092-0.47
		c0-0.183-0.045-0.335-0.133-0.457c-0.088-0.121-0.203-0.223-0.346-0.308c-0.145-0.084-0.307-0.156-0.488-0.215
		c-0.18-0.059-0.367-0.117-0.561-0.176c-0.191-0.059-0.379-0.123-0.561-0.192c-0.182-0.07-0.344-0.158-0.486-0.264
		s-0.26-0.235-0.348-0.388s-0.131-0.342-0.131-0.569c0-0.194,0.041-0.381,0.127-0.561c0.084-0.18,0.203-0.337,0.359-0.473
		c0.156-0.135,0.346-0.244,0.568-0.324c0.225-0.081,0.477-0.121,0.754-0.121c0.334,0,0.631,0.048,0.889,0.145
		s0.496,0.245,0.713,0.443L109.321,25.728z"/>
	<path fill="#FFFFFF" d="M114.638,25.777c-0.018,0.019-0.035,0.034-0.051,0.047c-0.018,0.013-0.041,0.02-0.07,0.02
		c-0.035,0-0.086-0.025-0.15-0.074c-0.064-0.05-0.148-0.104-0.256-0.163c-0.105-0.059-0.238-0.113-0.398-0.162
		s-0.354-0.074-0.58-0.074c-0.316,0-0.596,0.056-0.84,0.167c-0.242,0.112-0.449,0.272-0.615,0.481s-0.295,0.462-0.383,0.759
		c-0.088,0.297-0.131,0.631-0.131,1.001c0,0.385,0.045,0.726,0.135,1.023c0.09,0.297,0.217,0.547,0.381,0.75
		c0.166,0.204,0.365,0.358,0.6,0.465s0.496,0.16,0.781,0.16c0.264,0,0.484-0.031,0.664-0.094c0.178-0.062,0.324-0.13,0.439-0.204
		c0.115-0.073,0.207-0.141,0.275-0.203c0.066-0.062,0.121-0.094,0.162-0.094c0.047,0,0.084,0.019,0.109,0.055l0.143,0.176
		c-0.084,0.11-0.189,0.213-0.318,0.308s-0.273,0.178-0.436,0.248c-0.16,0.07-0.336,0.124-0.523,0.162
		c-0.189,0.039-0.387,0.058-0.592,0.058c-0.35,0-0.666-0.063-0.955-0.189c-0.287-0.126-0.535-0.31-0.742-0.55
		c-0.207-0.24-0.369-0.534-0.484-0.882c-0.115-0.349-0.172-0.745-0.172-1.188c0-0.418,0.055-0.799,0.164-1.144
		s0.27-0.642,0.48-0.891s0.471-0.443,0.775-0.581c0.307-0.137,0.658-0.206,1.055-0.206c0.355,0,0.672,0.057,0.949,0.17
		c0.275,0.114,0.518,0.268,0.723,0.462L114.638,25.777z"/>
	<path fill="#FFFFFF" d="M119.534,30.518c-0.111,0-0.178-0.051-0.205-0.154l-0.076-0.699c-0.15,0.147-0.299,0.279-0.449,0.396
		c-0.148,0.118-0.303,0.216-0.463,0.297c-0.162,0.081-0.336,0.142-0.523,0.185c-0.188,0.042-0.393,0.063-0.615,0.063
		c-0.188,0-0.369-0.027-0.545-0.083c-0.176-0.055-0.332-0.139-0.469-0.253c-0.135-0.114-0.244-0.259-0.326-0.437
		c-0.082-0.178-0.123-0.392-0.123-0.641c0-0.231,0.064-0.445,0.197-0.644c0.133-0.198,0.338-0.37,0.619-0.517
		c0.279-0.147,0.641-0.264,1.082-0.352c0.443-0.088,0.973-0.14,1.594-0.154v-0.572c0-0.506-0.109-0.896-0.328-1.169
		c-0.219-0.273-0.541-0.41-0.971-0.41c-0.264,0-0.488,0.037-0.674,0.11c-0.186,0.074-0.342,0.154-0.471,0.242
		c-0.127,0.088-0.232,0.169-0.312,0.242s-0.148,0.11-0.203,0.11c-0.074,0-0.129-0.033-0.166-0.099l-0.094-0.159
		c0.287-0.286,0.588-0.502,0.902-0.649c0.316-0.146,0.674-0.22,1.072-0.22c0.293,0,0.551,0.047,0.771,0.14
		c0.219,0.094,0.402,0.228,0.547,0.401c0.145,0.174,0.254,0.385,0.326,0.633c0.074,0.248,0.111,0.523,0.111,0.828v3.564H119.534z
		 M117.333,30.227c0.213,0,0.408-0.023,0.586-0.069s0.344-0.11,0.496-0.192c0.15-0.083,0.293-0.181,0.426-0.294
		c0.131-0.113,0.262-0.236,0.391-0.368v-1.425c-0.521,0.015-0.969,0.054-1.346,0.118c-0.375,0.064-0.686,0.151-0.93,0.261
		c-0.244,0.11-0.424,0.241-0.539,0.394s-0.172,0.325-0.172,0.52c0,0.184,0.029,0.342,0.09,0.476s0.141,0.244,0.24,0.33
		c0.098,0.086,0.213,0.15,0.346,0.19C117.054,30.207,117.19,30.227,117.333,30.227z"/>
	<path fill="#FFFFFF" d="M122.069,22.516v8.002h-0.523v-8.002H122.069z"/>
	<path fill="#FFFFFF" d="M126.067,24.958c0.309,0,0.594,0.053,0.855,0.16s0.488,0.261,0.682,0.465
		c0.193,0.203,0.344,0.454,0.451,0.75s0.162,0.638,0.162,1.023c0,0.081-0.012,0.136-0.035,0.165s-0.062,0.044-0.113,0.044h-3.949
		v0.104c0,0.411,0.047,0.772,0.143,1.083c0.096,0.312,0.232,0.573,0.408,0.784c0.176,0.211,0.389,0.37,0.637,0.476
		c0.25,0.106,0.529,0.159,0.836,0.159c0.275,0,0.514-0.03,0.715-0.09c0.203-0.061,0.373-0.128,0.51-0.204s0.246-0.143,0.326-0.204
		c0.082-0.061,0.141-0.091,0.178-0.091c0.047,0,0.084,0.019,0.109,0.055l0.143,0.176c-0.088,0.11-0.205,0.213-0.35,0.308
		s-0.305,0.177-0.482,0.245c-0.18,0.068-0.369,0.122-0.572,0.163c-0.205,0.04-0.408,0.06-0.613,0.06
		c-0.375,0-0.715-0.065-1.023-0.195c-0.309-0.13-0.572-0.32-0.793-0.569c-0.221-0.25-0.391-0.555-0.512-0.916
		c-0.121-0.361-0.18-0.774-0.18-1.24c0-0.392,0.055-0.754,0.166-1.086c0.113-0.332,0.273-0.618,0.484-0.858
		c0.211-0.24,0.471-0.428,0.775-0.563C125.331,25.025,125.679,24.958,126.067,24.958z M126.075,25.348
		c-0.281,0-0.535,0.044-0.758,0.132s-0.416,0.214-0.58,0.379c-0.162,0.165-0.293,0.363-0.395,0.594s-0.168,0.489-0.201,0.775h3.604
		c0-0.293-0.041-0.556-0.121-0.789s-0.193-0.43-0.34-0.591s-0.322-0.285-0.527-0.371C126.552,25.391,126.325,25.348,126.075,25.348z
		"/>
</g>
<path fill="#FFFFFF" d="M30.609,17.899h-3.381V3.029h5.695c4.119,0,5.377,2.891,5.377,4.904c0,2.104-1.15,3.61-2.742,4.397
	l2.613,5.568h-3.719l-2.338-4.997h-1.506V17.899z M34.9,7.934c0-0.613-0.344-1.764-1.869-1.764h-2.422v3.553h2.504
	C34.557,9.674,34.9,8.49,34.9,7.934z"/>
<path fill="#FFFFFF" d="M44.887,12.143v2.59h6.879v3.167H41.486V3.029h10.279v3.162h-6.879v2.782h5.375v3.169H44.887z"/>
<path fill="#FFFFFF" d="M55.17,17.899V3.029h5.354c5.65,0,7.369,4.314,7.369,7.412c0,3.192-1.719,7.458-7.369,7.458H55.17z
	 M60.523,14.732c3.441,0,3.928-3.188,3.928-4.291S63.965,6.17,60.523,6.17h-1.98v8.562H60.523z"/>
<path fill="#FFFFFF" d="M72.627,13.562c0.9,1.104,1.873,1.488,2.555,1.488c1.189,0,1.846-0.912,1.846-1.845
	c0-0.913-0.641-1.807-1.865-1.807h-3.723V3.472h7.906v2.978h-4.543V8.53h0.359c4.076,0,5.055,2.846,5.055,4.759
	c0,1.55-1,4.738-5.055,4.738c-1.977,0-3.572-1.048-4.717-2.507L72.627,13.562z"/>
<path fill="#DB1F26" d="M88.828,17.899h-3.416V3.029h5.732c4.123,0,5.375,2.891,5.375,4.904c0,2.974-2.611,4.972-5.119,4.972h-2.572
	V17.899L88.828,17.899z M93.119,7.934c0-0.613-0.338-1.764-1.865-1.764h-2.426v3.553h2.488C92.781,9.674,93.119,8.49,93.119,7.934z"
	/>
<path fill="#DB1F26" d="M103.295,17.899h-3.373V3.029h5.693c4.121,0,5.373,2.891,5.373,4.904c0,2.104-1.146,3.61-2.74,4.397
	l2.613,5.568h-3.717l-2.336-4.997h-1.514V17.899L103.295,17.899z M107.588,7.934c0-0.613-0.336-1.764-1.865-1.764h-2.428v3.553h2.51
	C107.252,9.674,107.588,8.49,107.588,7.934z"/>
<path fill="#DB1F26" d="M128.301,10.441c0,3.192-1.738,7.691-7.367,7.691c-5.654,0-7.391-4.499-7.391-7.691
	c0-3.098,1.736-7.667,7.391-7.667C126.562,2.774,128.301,7.344,128.301,10.441z M124.844,10.441c0-1.103-0.49-4.464-3.91-4.464
	c-3.441,0-3.932,3.361-3.932,4.464s0.49,4.506,3.932,4.506C124.354,14.947,124.844,11.544,124.844,10.441z"/>
<g>
	<g>
		<polygon fill="#DB1F26" points="14.398,9.949 14.398,5.656 18.867,5.656 18.867,2.915 4.064,2.915 4.064,10.65 8.49,10.65 
			8.49,14.944 4.064,14.944 4.064,17.721 18.867,17.721 18.867,9.949 		"/>
	</g>
</g>
<g>
	<path fill="#FFFFFF" d="M135.234,5.619c0,1.417-1.143,2.546-2.594,2.546c-1.447,0-2.604-1.129-2.604-2.546
		c0-1.42,1.156-2.526,2.617-2.526C134.092,3.093,135.234,4.199,135.234,5.619z M130.682,5.619c0,1.123,0.852,2.02,1.979,2.02
		c1.094,0.013,1.928-0.896,1.928-2.003c0-1.129-0.834-2.042-1.961-2.042C131.533,3.594,130.682,4.507,130.682,5.619z M132.238,6.93
		h-0.58V4.396c0.229-0.024,0.553-0.077,0.969-0.077c0.479,0,0.695,0.077,0.863,0.203c0.156,0.105,0.264,0.299,0.264,0.54
		c0,0.311-0.234,0.515-0.527,0.604v0.029c0.248,0.079,0.369,0.279,0.447,0.619c0.08,0.383,0.141,0.521,0.189,0.615h-0.617
		c-0.08-0.094-0.131-0.309-0.201-0.615c-0.049-0.266-0.199-0.386-0.523-0.386h-0.283V6.93L132.238,6.93z M132.262,5.513h0.275
		c0.324,0,0.578-0.11,0.578-0.374c0-0.234-0.162-0.387-0.535-0.387c-0.156,0-0.262,0.018-0.318,0.03V5.513z"/>
</g>
</svg>
