<?xml version="1.0" encoding="utf-8"?>
<!-- Generator: Adobe Illustrator 15.1.0, SVG Export Plug-In . SVG Version: 6.00 Build 0)  -->
<!DOCTYPE svg PUBLIC "-//W3C//DTD SVG 1.1//EN" "http://www.w3.org/Graphics/SVG/1.1/DTD/svg11.dtd">
<svg version="1.1" id="Layer_1" xmlns="http://www.w3.org/2000/svg" xmlns:xlink="http://www.w3.org/1999/xlink" x="0px" y="0px"
	 width="380px" height="65px" viewBox="0 0 380 65" enable-background="new 0 0 380 65" xml:space="preserve">
<path d="M87.192,52.818H77.99V12.306H93.5c11.228,0,14.643,7.871,14.643,13.369c0,5.729-3.125,9.839-7.466,11.98l7.118,15.163
	H97.667l-6.366-13.601h-4.109V52.818z M98.882,25.675c0-1.679-0.926-4.804-5.093-4.804h-6.598v9.665h6.829
	C97.957,30.421,98.882,27.18,98.882,25.675z"/>
<path d="M126.089,37.135v7.061h18.752v8.623H116.83V12.306h28.012v8.623h-18.752v7.582h14.643v8.624H126.089z"/>
<path d="M154.106,52.818V12.306h14.584c15.396,0,20.084,11.749,20.084,20.199c0,8.681-4.688,20.313-20.084,20.313H154.106z
	 M168.69,44.195c9.377,0,10.708-8.682,10.708-11.69c0-3.01-1.331-11.634-10.708-11.634h-5.382v23.324H168.69z"/>
<path d="M201.684,41.012c2.431,3.01,5.094,4.052,6.945,4.052c3.242,0,5.035-2.489,5.035-5.035c0-2.488-1.736-4.92-5.092-4.92
	h-10.129V13.521h21.53v8.104h-12.385v5.672h0.984c11.111,0,13.773,7.755,13.773,12.964c0,4.225-2.719,12.906-13.773,12.906
	c-5.383,0-9.724-2.836-12.849-6.829L201.684,41.012z"/>
<path fill="#E31900" d="M245.818,52.818h-9.316V12.306h15.625c11.229,0,14.643,7.871,14.643,13.369
	c0,8.103-7.117,13.543-13.947,13.543h-7.004V52.818z M257.51,25.675c0-1.679-0.926-4.804-5.092-4.804h-6.6v9.665h6.771
	C256.584,30.421,257.51,27.18,257.51,25.675z"/>
<path fill="#E31900" d="M285.238,52.818h-9.203V12.306h15.512c11.227,0,14.643,7.871,14.643,13.369c0,5.729-3.125,9.839-7.467,11.98
	l7.119,15.163h-10.129l-6.365-13.601h-4.109V52.818z M296.928,25.675c0-1.679-0.926-4.804-5.092-4.804h-6.598v9.665h6.828
	C296.002,30.421,296.928,27.18,296.928,25.675z"/>
<path fill="#E31900" d="M353.363,32.505c0,8.681-4.746,20.95-20.084,20.95c-15.395,0-20.141-12.27-20.141-20.95
	c0-8.45,4.746-20.894,20.141-20.894C348.617,11.611,353.363,24.055,353.363,32.505z M343.928,32.505
	c0-3.01-1.33-12.154-10.648-12.154c-9.377,0-10.707,9.145-10.707,12.154c0,3.009,1.33,12.269,10.707,12.269
	C342.598,44.773,343.928,35.514,343.928,32.505z"/>
<g>
	<polygon fill="#E31900" points="43.03,31.169 43.03,19.481 55.203,19.481 55.203,11.997 14.864,11.997 14.864,33.068 
		26.932,33.068 26.932,44.756 14.864,44.756 14.864,52.336 55.203,52.336 55.203,31.169 	"/>
</g>
<g>
	<path d="M372.242,19.362c0,3.865-3.109,6.932-7.059,6.932c-3.947,0-7.098-3.066-7.098-6.932c0-3.864,3.15-6.889,7.141-6.889
		C369.133,12.474,372.242,15.498,372.242,19.362z M359.85,19.362c0,3.066,2.311,5.503,5.377,5.503
		c2.982,0.042,5.25-2.437,5.25-5.461c0-3.066-2.268-5.545-5.334-5.545C362.16,13.859,359.85,16.338,359.85,19.362z M364.092,22.933
		h-1.596v-6.889c0.631-0.084,1.512-0.21,2.646-0.21c1.303,0,1.891,0.21,2.352,0.546c0.42,0.294,0.715,0.798,0.715,1.471
		c0,0.84-0.631,1.386-1.428,1.638v0.084c0.672,0.21,1.008,0.757,1.217,1.681c0.211,1.05,0.379,1.428,0.506,1.68h-1.682
		c-0.209-0.252-0.336-0.84-0.545-1.68c-0.127-0.714-0.547-1.051-1.43-1.051h-0.756V22.933z M364.135,19.068h0.756
		c0.883,0,1.596-0.294,1.596-1.008c0-0.631-0.461-1.051-1.471-1.051c-0.42,0-0.713,0.042-0.881,0.084V19.068z"/>
</g>
</svg>
